<svg xmlns="http://www.w3.org/2000/svg" viewBox="0 0 24 24" fill="currentColor">
    <path d="M12.04 2C6.58 2 2.13 6.45 2.13 11.91C2.13 13.66 2.59 15.36 3.47 16.86L2.05 22L7.3 20.63C8.75 21.41 10.38 21.83 12.04 21.83C17.5 21.83 21.95 17.38 21.95 11.92C21.95 9.27 20.92 6.78 19.05 4.9C17.18 3.03 14.69 2 12.04 2M12.05 3.67C14.25 3.67 16.31 4.53 17.87 6.09C19.42 7.65 20.28 9.72 20.28 11.92C20.28 16.46 16.58 20.15 12.04 20.15C10.56 20.15 9.11 19.76 7.85 19.02L7.55 18.84L4.41 19.66L5.25 16.59L5.05 16.27C4.24 14.99 3.8 13.47 3.8 11.91C3.8 7.37 7.5 3.67 12.05 3.67M8.53 7.33C8.37 7.33 8.1 7.39 7.87 7.64C7.65 7.89 7.03 8.5 7.03 9.73C7.03 10.97 7.93 12.16 8.05 12.33C8.18 12.5 9.82 15.03 12.33 16.12C12.93 16.38 13.39 16.52 13.75 16.64C14.36 16.83 14.91 16.8 15.35 16.74C15.84 16.67 16.86 16.12 17.07 15.53C17.28 14.94 17.28 14.44 17.22 14.33C17.15 14.22 17 14.16 16.79 14.05L15.42 13.38C15.26 13.3 15.1 13.26 14.94 13.5C14.78 13.74 14.32 14.28 14.18 14.44C14.05 14.61 13.91 14.63 13.7 14.52C13.49 14.41 12.8 14.19 11.97 13.45C11.33 12.88 10.9 12.17 10.77 11.95C10.65 11.74 10.76 11.62 10.87 11.52C10.97 11.42 11.1 11.25 11.21 11.11C11.31 10.97 11.35 10.87 11.42 10.72C11.48 10.58 11.45 10.45 11.4 10.35C11.35 10.25 10.9 9.15 10.71 8.69C10.53 8.24 10.34 8.3 10.2 8.3C10.07 8.3 9.91 8.3 9.76 8.3C9.6 8.3 9.35 8.36 9.13 8.6C8.9 8.84 8.53 9.21 8.53 10.03C8.53 10.85 9.13 11.64 9.21 11.75" />
</svg>
